<svg width="109" height="47" viewBox="0 0 109 47" fill="none" xmlns="http://www.w3.org/2000/svg">
<path d="M13.5 19L22.5 12L31.5 19V30C31.5 30.5304 31.2893 31.0391 30.9142 31.4142C30.5391 31.7893 30.0304 32 29.5 32H15.5C14.9696 32 14.4609 31.7893 14.0858 31.4142C13.7107 31.0391 13.5 30.5304 13.5 30V19Z" stroke="#EEEEEE" stroke-width="2" stroke-linecap="round" stroke-linejoin="round"/>
<path d="M19.5 32V22H25.5V32" stroke="#EEEEEE" stroke-width="2" stroke-linecap="round" stroke-linejoin="round"/>
<path d="M55.552 17.454V30H53.914V24.312H47.524V30H45.886V17.454H47.524V22.962H53.914V17.454H55.552ZM62.6509 30.162C61.7269 30.162 60.8869 29.952 60.1309 29.532C59.3869 29.112 58.7989 28.518 58.3669 27.75C57.9469 26.97 57.7369 26.07 57.7369 25.05C57.7369 24.042 57.9529 23.154 58.3849 22.386C58.8289 21.606 59.4289 21.012 60.1849 20.604C60.9409 20.184 61.7869 19.974 62.7229 19.974C63.6589 19.974 64.5049 20.184 65.2609 20.604C66.0169 21.012 66.6109 21.6 67.0429 22.368C67.4869 23.136 67.7089 24.03 67.7089 25.05C67.7089 26.07 67.4809 26.97 67.0249 27.75C66.5809 28.518 65.9749 29.112 65.2069 29.532C64.4389 29.952 63.5869 30.162 62.6509 30.162ZM62.6509 28.722C63.2389 28.722 63.7909 28.584 64.3069 28.308C64.8229 28.032 65.2369 27.618 65.5489 27.066C65.8729 26.514 66.0349 25.842 66.0349 25.05C66.0349 24.258 65.8789 23.586 65.5669 23.034C65.2549 22.482 64.8469 22.074 64.3429 21.81C63.8389 21.534 63.2929 21.396 62.7049 21.396C62.1049 21.396 61.5529 21.534 61.0489 21.81C60.5569 22.074 60.1609 22.482 59.8609 23.034C59.5609 23.586 59.4109 24.258 59.4109 25.05C59.4109 25.854 59.5549 26.532 59.8429 27.084C60.1429 27.636 60.5389 28.05 61.0309 28.326C61.5229 28.59 62.0629 28.722 62.6509 28.722ZM81.7246 19.956C82.4926 19.956 83.1766 20.118 83.7766 20.442C84.3766 20.754 84.8506 21.228 85.1986 21.864C85.5466 22.5 85.7206 23.274 85.7206 24.186V30H84.1006V24.42C84.1006 23.436 83.8546 22.686 83.3626 22.17C82.8826 21.642 82.2286 21.378 81.4006 21.378C80.5486 21.378 79.8706 21.654 79.3666 22.206C78.8626 22.746 78.6106 23.532 78.6106 24.564V30H76.9906V24.42C76.9906 23.436 76.7446 22.686 76.2526 22.17C75.7726 21.642 75.1186 21.378 74.2906 21.378C73.4386 21.378 72.7606 21.654 72.2566 22.206C71.7526 22.746 71.5006 23.532 71.5006 24.564V30H69.8626V20.136H71.5006V21.558C71.8246 21.042 72.2566 20.646 72.7966 20.37C73.3486 20.094 73.9546 19.956 74.6146 19.956C75.4426 19.956 76.1746 20.142 76.8106 20.514C77.4466 20.886 77.9206 21.432 78.2326 22.152C78.5086 21.456 78.9646 20.916 79.6006 20.532C80.2366 20.148 80.9446 19.956 81.7246 19.956ZM97.4075 24.69C97.4075 25.002 97.3895 25.332 97.3535 25.68H89.4695C89.5295 26.652 89.8595 27.414 90.4595 27.966C91.0715 28.506 91.8095 28.776 92.6735 28.776C93.3815 28.776 93.9695 28.614 94.4375 28.29C94.9175 27.954 95.2535 27.51 95.4455 26.958H97.2095C96.9455 27.906 96.4175 28.68 95.6255 29.28C94.8335 29.868 93.8495 30.162 92.6735 30.162C91.7375 30.162 90.8975 29.952 90.1535 29.532C89.4215 29.112 88.8455 28.518 88.4255 27.75C88.0055 26.97 87.7955 26.07 87.7955 25.05C87.7955 24.03 87.9995 23.136 88.4075 22.368C88.8155 21.6 89.3855 21.012 90.1175 20.604C90.8615 20.184 91.7135 19.974 92.6735 19.974C93.6095 19.974 94.4375 20.178 95.1575 20.586C95.8775 20.994 96.4295 21.558 96.8135 22.278C97.2095 22.986 97.4075 23.79 97.4075 24.69ZM95.7155 24.348C95.7155 23.724 95.5775 23.19 95.3015 22.746C95.0255 22.29 94.6475 21.948 94.1675 21.72C93.6995 21.48 93.1775 21.36 92.6015 21.36C91.7735 21.36 91.0655 21.624 90.4775 22.152C89.9015 22.68 89.5715 23.412 89.4875 24.348H95.7155Z" fill="#EEEEEE"/>
</svg>
