<svg width="135" height="47" viewBox="0 0 135 47" fill="none" xmlns="http://www.w3.org/2000/svg">
<path d="M30.5 31V29C30.5 27.9391 30.0786 26.9217 29.3284 26.1716C28.5783 25.4214 27.5609 25 26.5 25H18.5C17.4391 25 16.4217 25.4214 15.6716 26.1716C14.9214 26.9217 14.5 27.9391 14.5 29V31" stroke="#EEEEEE" stroke-width="2" stroke-linecap="round" stroke-linejoin="round"/>
<path d="M22.5 21C24.7091 21 26.5 19.2091 26.5 17C26.5 14.7909 24.7091 13 22.5 13C20.2909 13 18.5 14.7909 18.5 17C18.5 19.2091 20.2909 21 22.5 21Z" stroke="#EEEEEE" stroke-width="2" stroke-linecap="round" stroke-linejoin="round"/>
<path d="M49.864 30.126C49.036 30.126 48.292 29.982 47.632 29.694C46.984 29.394 46.474 28.986 46.102 28.47C45.73 27.942 45.538 27.336 45.526 26.652H47.272C47.332 27.24 47.572 27.738 47.992 28.146C48.424 28.542 49.048 28.74 49.864 28.74C50.644 28.74 51.256 28.548 51.7 28.164C52.156 27.768 52.384 27.264 52.384 26.652C52.384 26.172 52.252 25.782 51.988 25.482C51.724 25.182 51.394 24.954 50.998 24.798C50.602 24.642 50.068 24.474 49.396 24.294C48.568 24.078 47.902 23.862 47.398 23.646C46.906 23.43 46.48 23.094 46.12 22.638C45.772 22.17 45.598 21.546 45.598 20.766C45.598 20.082 45.772 19.476 46.12 18.948C46.468 18.42 46.954 18.012 47.578 17.724C48.214 17.436 48.94 17.292 49.756 17.292C50.932 17.292 51.892 17.586 52.636 18.174C53.392 18.762 53.818 19.542 53.914 20.514H52.114C52.054 20.034 51.802 19.614 51.358 19.254C50.914 18.882 50.326 18.696 49.594 18.696C48.91 18.696 48.352 18.876 47.92 19.236C47.488 19.584 47.272 20.076 47.272 20.712C47.272 21.168 47.398 21.54 47.65 21.828C47.914 22.116 48.232 22.338 48.604 22.494C48.988 22.638 49.522 22.806 50.206 22.998C51.034 23.226 51.7 23.454 52.204 23.682C52.708 23.898 53.14 24.24 53.5 24.708C53.86 25.164 54.04 25.788 54.04 26.58C54.04 27.192 53.878 27.768 53.554 28.308C53.23 28.848 52.75 29.286 52.114 29.622C51.478 29.958 50.728 30.126 49.864 30.126ZM65.4505 24.69C65.4505 25.002 65.4325 25.332 65.3965 25.68H57.5125C57.5725 26.652 57.9025 27.414 58.5025 27.966C59.1145 28.506 59.8525 28.776 60.7165 28.776C61.4245 28.776 62.0125 28.614 62.4805 28.29C62.9605 27.954 63.2965 27.51 63.4885 26.958H65.2525C64.9885 27.906 64.4605 28.68 63.6685 29.28C62.8765 29.868 61.8925 30.162 60.7165 30.162C59.7805 30.162 58.9405 29.952 58.1965 29.532C57.4645 29.112 56.8885 28.518 56.4685 27.75C56.0485 26.97 55.8385 26.07 55.8385 25.05C55.8385 24.03 56.0425 23.136 56.4505 22.368C56.8585 21.6 57.4285 21.012 58.1605 20.604C58.9045 20.184 59.7565 19.974 60.7165 19.974C61.6525 19.974 62.4805 20.178 63.2005 20.586C63.9205 20.994 64.4725 21.558 64.8565 22.278C65.2525 22.986 65.4505 23.79 65.4505 24.69ZM63.7585 24.348C63.7585 23.724 63.6205 23.19 63.3445 22.746C63.0685 22.29 62.6905 21.948 62.2105 21.72C61.7425 21.48 61.2205 21.36 60.6445 21.36C59.8165 21.36 59.1085 21.624 58.5205 22.152C57.9445 22.68 57.6145 23.412 57.5305 24.348H63.7585ZM69.2506 21.738C69.5386 21.174 69.9466 20.736 70.4746 20.424C71.0146 20.112 71.6686 19.956 72.4366 19.956V21.648H72.0046C70.1686 21.648 69.2506 22.644 69.2506 24.636V30H67.6126V20.136H69.2506V21.738ZM77.9994 28.488L81.0594 20.136H82.8054L78.9354 30H77.0274L73.1574 20.136H74.9214L77.9994 28.488ZM85.2633 18.534C84.9513 18.534 84.6873 18.426 84.4713 18.21C84.2553 17.994 84.1473 17.73 84.1473 17.418C84.1473 17.106 84.2553 16.842 84.4713 16.626C84.6873 16.41 84.9513 16.302 85.2633 16.302C85.5633 16.302 85.8153 16.41 86.0193 16.626C86.2353 16.842 86.3433 17.106 86.3433 17.418C86.3433 17.73 86.2353 17.994 86.0193 18.21C85.8153 18.426 85.5633 18.534 85.2633 18.534ZM86.0553 20.136V30H84.4173V20.136H86.0553ZM88.2349 25.05C88.2349 24.03 88.4389 23.142 88.8469 22.386C89.2549 21.618 89.8189 21.024 90.5389 20.604C91.2709 20.184 92.1049 19.974 93.0409 19.974C94.2529 19.974 95.2489 20.268 96.0289 20.856C96.8209 21.444 97.3429 22.26 97.5949 23.304H95.8309C95.6629 22.704 95.3329 22.23 94.8409 21.882C94.3609 21.534 93.7609 21.36 93.0409 21.36C92.1049 21.36 91.3489 21.684 90.7729 22.332C90.1969 22.968 89.9089 23.874 89.9089 25.05C89.9089 26.238 90.1969 27.156 90.7729 27.804C91.3489 28.452 92.1049 28.776 93.0409 28.776C93.7609 28.776 94.3609 28.608 94.8409 28.272C95.3209 27.936 95.6509 27.456 95.8309 26.832H97.5949C97.3309 27.84 96.8029 28.65 96.0109 29.262C95.2189 29.862 94.2289 30.162 93.0409 30.162C92.1049 30.162 91.2709 29.952 90.5389 29.532C89.8189 29.112 89.2549 28.518 88.8469 27.75C88.4389 26.982 88.2349 26.082 88.2349 25.05ZM100.627 18.534C100.315 18.534 100.051 18.426 99.8345 18.21C99.6185 17.994 99.5105 17.73 99.5105 17.418C99.5105 17.106 99.6185 16.842 99.8345 16.626C100.051 16.41 100.315 16.302 100.627 16.302C100.927 16.302 101.179 16.41 101.383 16.626C101.599 16.842 101.707 17.106 101.707 17.418C101.707 17.73 101.599 17.994 101.383 18.21C101.179 18.426 100.927 18.534 100.627 18.534ZM101.419 20.136V30H99.7805V20.136H101.419ZM108.512 30.162C107.588 30.162 106.748 29.952 105.992 29.532C105.248 29.112 104.66 28.518 104.228 27.75C103.808 26.97 103.598 26.07 103.598 25.05C103.598 24.042 103.814 23.154 104.246 22.386C104.69 21.606 105.29 21.012 106.046 20.604C106.802 20.184 107.648 19.974 108.584 19.974C109.52 19.974 110.366 20.184 111.122 20.604C111.878 21.012 112.472 21.6 112.904 22.368C113.348 23.136 113.57 24.03 113.57 25.05C113.57 26.07 113.342 26.97 112.886 27.75C112.442 28.518 111.836 29.112 111.068 29.532C110.3 29.952 109.448 30.162 108.512 30.162ZM108.512 28.722C109.1 28.722 109.652 28.584 110.168 28.308C110.684 28.032 111.098 27.618 111.41 27.066C111.734 26.514 111.896 25.842 111.896 25.05C111.896 24.258 111.74 23.586 111.428 23.034C111.116 22.482 110.708 22.074 110.204 21.81C109.7 21.534 109.154 21.396 108.566 21.396C107.966 21.396 107.414 21.534 106.91 21.81C106.418 22.074 106.022 22.482 105.722 23.034C105.422 23.586 105.272 24.258 105.272 25.05C105.272 25.854 105.416 26.532 105.704 27.084C106.004 27.636 106.4 28.05 106.892 28.326C107.384 28.59 107.924 28.722 108.512 28.722ZM119.216 30.162C118.46 30.162 117.782 30.036 117.182 29.784C116.582 29.52 116.108 29.16 115.76 28.704C115.412 28.236 115.22 27.702 115.184 27.102H116.876C116.924 27.594 117.152 27.996 117.56 28.308C117.98 28.62 118.526 28.776 119.198 28.776C119.822 28.776 120.314 28.638 120.674 28.362C121.034 28.086 121.214 27.738 121.214 27.318C121.214 26.886 121.022 26.568 120.638 26.364C120.254 26.148 119.66 25.938 118.856 25.734C118.124 25.542 117.524 25.35 117.056 25.158C116.6 24.954 116.204 24.66 115.868 24.276C115.544 23.88 115.382 23.364 115.382 22.728C115.382 22.224 115.532 21.762 115.832 21.342C116.132 20.922 116.558 20.592 117.11 20.352C117.662 20.1 118.292 19.974 119 19.974C120.092 19.974 120.974 20.25 121.646 20.802C122.318 21.354 122.678 22.11 122.726 23.07H121.088C121.052 22.554 120.842 22.14 120.458 21.828C120.086 21.516 119.582 21.36 118.946 21.36C118.358 21.36 117.89 21.486 117.542 21.738C117.194 21.99 117.02 22.32 117.02 22.728C117.02 23.052 117.122 23.322 117.326 23.538C117.542 23.742 117.806 23.91 118.118 24.042C118.442 24.162 118.886 24.3 119.45 24.456C120.158 24.648 120.734 24.84 121.178 25.032C121.622 25.212 122 25.488 122.312 25.86C122.636 26.232 122.804 26.718 122.816 27.318C122.816 27.858 122.666 28.344 122.366 28.776C122.066 29.208 121.64 29.55 121.088 29.802C120.548 30.042 119.924 30.162 119.216 30.162Z" fill="#EEEEEE"/>
</svg>
